<?xml version="1.0" encoding="UTF-8" standalone="no"?>
<!-- Created with Inkscape (http://www.inkscape.org/) -->

<svg
   xmlns:dc="http://purl.org/dc/elements/1.1/"
   xmlns:cc="http://creativecommons.org/ns#"
   xmlns:rdf="http://www.w3.org/1999/02/22-rdf-syntax-ns#"
   xmlns:svg="http://www.w3.org/2000/svg"
   xmlns="http://www.w3.org/2000/svg"
   xmlns:sodipodi="http://sodipodi.sourceforge.net/DTD/sodipodi-0.dtd"
   xmlns:inkscape="http://www.inkscape.org/namespaces/inkscape"
   width="372.04724"
   height="262.20471"
   id="svg2"
   version="1.1"
   inkscape:version="0.48.3.1 r9886"
   sodipodi:docname="cre3.svg"
   inkscape:export-filename="/media/Verbatim/Mesdocuments/Uppsala/Written/CLFL2015/Slides/images/cre3.png"
   inkscape:export-xdpi="600"
   inkscape:export-ydpi="600">
  <defs
     id="defs4">
    <filter
       inkscape:collect="always"
       id="filter6584"
       x="-0.074960679"
       width="1.1499214"
       y="-0.447108"
       height="1.8942159"
       color-interpolation-filters="sRGB">
      <feGaussianBlur
         inkscape:collect="always"
         stdDeviation="0.36967914"
         id="feGaussianBlur6586" />
    </filter>
    <filter
       inkscape:collect="always"
       id="filter3974"
       x="-0.075213238"
       width="1.1504265"
       y="-0.10194439"
       height="1.2038888">
      <feGaussianBlur
         inkscape:collect="always"
         stdDeviation="0.15519844"
         id="feGaussianBlur3976" />
    </filter>
    <filter
       inkscape:collect="always"
       id="filter3978"
       x="-0.076859449"
       width="1.1537189"
       y="-0.1041743"
       height="1.2083486">
      <feGaussianBlur
         inkscape:collect="always"
         stdDeviation="0.15519844"
         id="feGaussianBlur3980" />
    </filter>
    <filter
       inkscape:collect="always"
       id="filter3982">
      <feGaussianBlur
         inkscape:collect="always"
         stdDeviation="0.15519844"
         id="feGaussianBlur3984" />
    </filter>
    <filter
       inkscape:collect="always"
       id="filter4006"
       x="-1.9672719"
       width="4.9345438"
       y="-2.9509076"
       height="6.9018153">
      <feGaussianBlur
         inkscape:collect="always"
         stdDeviation="1.2420279"
         id="feGaussianBlur4008" />
    </filter>
    <filter
       inkscape:collect="always"
       id="filter4010"
       x="-0.21224642"
       width="1.4244928"
       y="-0.30839421"
       height="1.6167884">
      <feGaussianBlur
         inkscape:collect="always"
         stdDeviation="0.25016424"
         id="feGaussianBlur4012" />
    </filter>
    <filter
       inkscape:collect="always"
       id="filter4014"
       x="-0.21689052"
       width="1.433781"
       y="-0.31512619"
       height="1.6302524">
      <feGaussianBlur
         inkscape:collect="always"
         stdDeviation="0.25016424"
         id="feGaussianBlur4016" />
    </filter>
    <filter
       inkscape:collect="always"
       id="filter4018"
       x="-0.14421632"
       width="1.2884326"
       y="-0.20953461"
       height="1.4190692">
      <feGaussianBlur
         inkscape:collect="always"
         stdDeviation="0.25016424"
         id="feGaussianBlur4020" />
    </filter>
    <filter
       inkscape:collect="always"
       id="filter4022"
       x="-0.14737071"
       width="1.2947414"
       y="-0.21411984"
       height="1.4282397">
      <feGaussianBlur
         inkscape:collect="always"
         stdDeviation="0.25016424"
         id="feGaussianBlur4024" />
    </filter>
  </defs>
  <sodipodi:namedview
     id="base"
     pagecolor="#ffffff"
     bordercolor="#666666"
     borderopacity="1.0"
     inkscape:pageopacity="0.0"
     inkscape:pageshadow="2"
     inkscape:zoom="1.979899"
     inkscape:cx="62.654901"
     inkscape:cy="186.06889"
     inkscape:document-units="px"
     inkscape:current-layer="layer1"
     showgrid="false"
     inkscape:window-width="1920"
     inkscape:window-height="1033"
     inkscape:window-x="0"
     inkscape:window-y="0"
     inkscape:window-maximized="1" />
  <metadata
     id="metadata7">
    <rdf:RDF>
      <cc:Work
         rdf:about="">
        <dc:format>image/svg+xml</dc:format>
        <dc:type
           rdf:resource="http://purl.org/dc/dcmitype/StillImage" />
        <dc:title></dc:title>
      </cc:Work>
    </rdf:RDF>
  </metadata>
  <g
     inkscape:label="Layer 1"
     inkscape:groupmode="layer"
     id="layer1"
     transform="translate(0,-790.15745)">
    <flowRoot
       xml:space="preserve"
       id="flowRoot2985"
       style="font-size:13px;font-style:normal;font-variant:normal;font-weight:normal;font-stretch:normal;text-align:start;line-height:500%;letter-spacing:0px;word-spacing:0px;writing-mode:lr-tb;text-anchor:start;fill:#000000;fill-opacity:1;stroke:none;font-family:Gentium;-inkscape-font-specification:Gentium"
       transform="translate(0,287.36218)"><flowRegion
         id="flowRegion2987"><rect
           id="rect2989"
           width="657.14288"
           height="57.142857"
           x="214.28572"
           y="227.85715"
           style="font-size:13px;line-height:500%" /></flowRegion><flowPara
         id="flowPara2991">T</flowPara></flowRoot>    <flowRoot
       xml:space="preserve"
       id="flowRoot2993"
       style="font-size:16px;font-style:normal;font-variant:normal;font-weight:normal;font-stretch:normal;text-align:start;line-height:85.00000238%;letter-spacing:0px;word-spacing:0px;writing-mode:lr-tb;text-anchor:start;fill:#000000;fill-opacity:1;stroke:none;font-family:Gentium;-inkscape-font-specification:Gentium"
       transform="translate(0,287.36218)"><flowRegion
         id="flowRegion2995"><rect
           id="rect2997"
           width="722.85712"
           height="160"
           x="128.57143"
           y="186.42857"
           style="font-size:16px" /></flowRegion><flowPara
         id="flowPara2999" /></flowRoot>    <rect
       style="opacity:0.65400845;fill:none;stroke:#ffffff;stroke-width:2.52474356;stroke-linecap:square;stroke-miterlimit:4;stroke-opacity:1;stroke-dasharray:none"
       id="rect6550"
       width="352.84335"
       height="178.9948"
       x="11.352252"
       y="811.87769"
       inkscape:export-filename="/media/Verbatim/Mesdocuments/Uppsala/Written/CLFL2015/Slides/images/cre.png"
       inkscape:export-xdpi="600"
       inkscape:export-ydpi="600" />
    <path
       style="fill:#ffffff;stroke:none"
       d="m 247.89801,912.61533 3.9192,2.88963"
       id="path4210"
       inkscape:connector-curvature="0"
       inkscape:export-filename="/media/Verbatim/Mesdocuments/Uppsala/Written/CLFL2015/Slides/images/cre.png"
       inkscape:export-xdpi="600"
       inkscape:export-ydpi="600" />
    <text
       xml:space="preserve"
       style="font-size:38.46832657px;font-style:normal;font-weight:normal;line-height:85.00000238%;letter-spacing:0px;word-spacing:0px;fill:#4d4d4d;fill-opacity:1;stroke:none;font-family:Sans"
       x="41.66325"
       y="818.0481"
       id="text4089-2"
       sodipodi:linespacing="85.000002%"
       transform="scale(0.95089239,1.0516437)"
       inkscape:export-filename="/media/Verbatim/Mesdocuments/Uppsala/Written/CLFL2015/Slides/images/cre.png"
       inkscape:export-xdpi="600"
       inkscape:export-ydpi="600"><tspan
         sodipodi:role="line"
         id="tspan4091-3"
         x="41.66325"
         y="818.0481"
         style="font-size:12.50220776px;fill:#4d4d4d">Results:</tspan></text>
    <path
       style="fill:#ffffff;stroke:none"
       d="m 273.68728,832.35556 3.91918,2.88966"
       id="path4210-6"
       inkscape:connector-curvature="0"
       inkscape:export-filename="/media/Verbatim/Mesdocuments/Uppsala/Written/CLFL2015/Slides/images/cre.png"
       inkscape:export-xdpi="600"
       inkscape:export-ydpi="600" />
    <g
       id="g5550"
       transform="matrix(0.91448112,0,0,1.0113745,-44.894569,650.73796)"
       inkscape:export-filename="/media/Verbatim/Mesdocuments/Uppsala/Written/CLFL2015/Slides/images/cre.png"
       inkscape:export-xdpi="600"
       inkscape:export-ydpi="600">
      <rect
         ry="1.9642857"
         y="175.37859"
         x="332.7048"
         height="13.392858"
         width="30"
         id="rect4204"
         style="fill:#808000;fill-opacity:1;stroke:#000000;stroke-width:0.99000001;stroke-linecap:square;stroke-miterlimit:4;stroke-opacity:1;stroke-dasharray:none" />
      <path
         inkscape:connector-curvature="0"
         d="m 348.83175,182.87862 2.7678,1.69643 m -2.1671,-3.27555 c 0,1.55258 -1.2586,2.81118 -2.8112,2.81118 -1.5526,0 -2.8112,-1.2586 -2.8112,-2.81118 0,-1.55258 1.2587,-2.81119 2.8112,-2.81119 1.5526,0 2.8112,1.25861 2.8112,2.81119 z"
         style="fill:none;stroke:#ffffff;stroke-width:1px;stroke-linecap:butt;stroke-linejoin:miter;stroke-opacity:1"
         id="path3045-8" />
    </g>
    <g
       id="g5560"
       transform="matrix(0.91448112,0,0,1.0113745,-44.894569,650.73796)"
       inkscape:export-filename="/media/Verbatim/Mesdocuments/Uppsala/Written/CLFL2015/Slides/images/cre.png"
       inkscape:export-xdpi="600"
       inkscape:export-ydpi="600">
      <rect
         style="fill:#ffffff;fill-opacity:1;stroke:#000000;stroke-width:0.71314406;stroke-linecap:square;stroke-miterlimit:4;stroke-opacity:1;stroke-dasharray:none"
         id="rect3043"
         width="241.43674"
         height="13.798866"
         x="87.98436"
         y="175.67796" />
      <text
         sodipodi:linespacing="85.000002%"
         id="text3082-6"
         y="186.83253"
         x="89.908112"
         style="font-size:40px;font-style:normal;font-weight:normal;line-height:85.00000238%;letter-spacing:0px;word-spacing:0px;fill:#000000;fill-opacity:1;stroke:none;font-family:Sans"
         xml:space="preserve"><tspan
           style="font-size:13px"
           y="186.83253"
           x="89.908112"
           id="tspan3084-9"
           sodipodi:role="line">chiasmus </tspan></text>
    </g>
    <flowRoot
       xml:space="preserve"
       id="flowRoot6508"
       style="font-size:16px;font-style:normal;font-weight:normal;line-height:85.00000238%;letter-spacing:0px;word-spacing:0px;opacity:0.9748954;fill:#000000;fill-opacity:1;stroke:none;filter:url(#filter6584);font-family:Sans"
       transform="matrix(0.71312386,0,0,0.78868259,-850.15074,333.32592)"
       inkscape:export-filename="/media/Verbatim/Mesdocuments/Uppsala/Written/CLFL2015/Slides/images/cre.png"
       inkscape:export-xdpi="600"
       inkscape:export-ydpi="600"><flowRegion
         id="flowRegion6510"><rect
           id="rect6512"
           width="85.714287"
           height="22.142857"
           x="1445"
           y="754.61755" /></flowRegion><flowPara
         id="flowPara6514">...</flowPara></flowRoot>    <flowRoot
       xml:space="preserve"
       id="flowRoot6518"
       style="font-size:16px;font-style:normal;font-weight:normal;line-height:85.00000238%;letter-spacing:0px;word-spacing:0px;fill:#000000;fill-opacity:1;stroke:none;font-family:Sans"
       transform="matrix(0.71312386,0,0,0.78868259,-919.41161,343.49163)"
       inkscape:export-filename="/media/Verbatim/Mesdocuments/Uppsala/Written/CLFL2015/Slides/images/cre.png"
       inkscape:export-xdpi="600"
       inkscape:export-ydpi="600"><flowRegion
         id="flowRegion6520"><rect
           id="rect6522"
           width="468.99655"
           height="47.084915"
           x="1322.2897"
           y="777.04156" /></flowRegion><flowPara
         id="flowPara6524">200. <flowSpan
   style="font-weight:bold;-inkscape-font-specification:Sans Bold"
   id="flowSpan6654">I</flowSpan> like beer from <flowSpan
   style="font-weight:bold;-inkscape-font-specification:Sans Bold"
   id="flowSpan6660">time </flowSpan>to <flowSpan
   style="font-weight:bold;-inkscape-font-specification:Sans Bold"
   id="flowSpan6662">time</flowSpan> but <flowSpan
   style="font-weight:bold;-inkscape-font-specification:Sans Bold"
   id="flowSpan6664">I </flowSpan>prefer wine</flowPara><flowPara
         id="flowPara3056"></flowPara><flowPara
         id="flowPara3062">201. Read Lord <flowSpan
   style="font-weight:bold;-inkscape-font-specification:Sans Bold"
   id="flowSpan3856">of the</flowSpan> ring, but only <flowSpan
   style="font-weight:bold;-inkscape-font-specification:Sans Bold"
   id="flowSpan3858">the</flowSpan> end <flowSpan
   style="font-weight:bold;-inkscape-font-specification:Sans Bold"
   id="flowSpan3860">of</flowSpan> it ! </flowPara></flowRoot>    <flowRoot
       xml:space="preserve"
       id="flowRoot6610"
       style="font-size:16px;font-style:normal;font-weight:normal;line-height:85.00000238%;letter-spacing:0px;word-spacing:0px;fill:#000000;fill-opacity:1;stroke:none;font-family:Sans"
       transform="matrix(0.91448112,0,0,1.0113745,-540.69212,611.614)"
       inkscape:export-filename="/media/Verbatim/Mesdocuments/Uppsala/Written/CLFL2015/Slides/images/cre.png"
       inkscape:export-xdpi="600"
       inkscape:export-ydpi="600"><flowRegion
         id="flowRegion6612"><rect
           id="rect6614"
           width="446.99249"
           height="79.296974"
           x="616.69812"
           y="255.29779" /></flowRegion><flowPara
         id="flowPara6616"
         style="font-size:14px">1. <flowSpan
   style="font-weight:bold;-inkscape-font-specification:Sans Bold"
   id="flowSpan6630">First</flowSpan> should be <flowSpan
   style="font-weight:bold;-inkscape-font-specification:Sans Bold"
   id="flowSpan6632">last</flowSpan> and <flowSpan
   style="font-weight:bold;-inkscape-font-specification:Sans Bold"
   id="flowSpan6634">last</flowSpan> should be <flowSpan
   style="font-weight:bold;-inkscape-font-specification:Sans Bold"
   id="flowSpan6636">first</flowSpan></flowPara><flowPara
         style="font-size:14px"
         id="flowPara6618" /><flowPara
         style="font-size:14px"
         id="flowPara6624">2. <flowSpan
   style="font-weight:bold;-inkscape-font-specification:Sans Bold"
   id="flowSpan6646">Failing</flowSpan> to <flowSpan
   style="font-weight:bold;-inkscape-font-specification:Sans Bold"
   id="flowSpan6648">prepare</flowSpan> is <flowSpan
   style="font-weight:bold;-inkscape-font-specification:Sans Bold"
   id="flowSpan6650">preparing</flowSpan> to <flowSpan
   style="font-weight:bold;-inkscape-font-specification:Sans Bold"
   id="flowSpan6652">fail</flowSpan></flowPara></flowRoot>    <path
       style="fill:none;stroke:#008000;stroke-width:4.74944305;stroke-linecap:butt;stroke-linejoin:miter;stroke-miterlimit:4;stroke-opacity:1;stroke-dasharray:none"
       d="m 341.48065,870.26068 c 10.28071,8.99562 13.39858,7.34592 10.28071,7.28217 -2.85523,-0.0584 2.78883,-17.50601 4.71199,-14.56434"
       id="path3836"
       inkscape:connector-curvature="0"
       sodipodi:nodetypes="csc" />
    <path
       style="fill:none;stroke:#008000;stroke-width:3.2913456;stroke-linecap:butt;stroke-linejoin:miter;stroke-miterlimit:4;stroke-opacity:1;stroke-dasharray:none"
       d="m 343.78206,898.61191 c 7.12448,6.23394 9.28515,5.0907 7.12448,5.04652 -1.97866,-0.0404 1.93265,-12.13159 3.2654,-10.09303"
       id="path3836-6"
       inkscape:connector-curvature="0"
       sodipodi:nodetypes="csc" />
    <path
       style="fill:#800000;fill-opacity:1;stroke:#d40000;stroke-width:3.95388126;stroke-linecap:round;stroke-linejoin:round;stroke-miterlimit:4;stroke-opacity:1;stroke-dasharray:none"
       id="path3866"
       d="m 357.29164,955.63157 c -0.5821,0.86639 -1.26044,1.66004 -1.95806,2.43415 -0.50607,0.58857 -1.10624,1.07841 -1.74066,1.52039 -2.95131,1.81881 -9.78255,5.64904 -0.92325,0.58431 0.77575,-0.44349 -0.68654,0.43738 -0.81283,0.52765 -9.9724,5.771 -3.03047,1.74832 -0.49362,0.30016 0.08,-0.0456 -0.15341,0.10239 -0.23153,0.15137 -0.28538,0.17895 -0.56109,0.35605 -0.83306,0.55573 -0.63405,0.50367 -1.32973,0.91967 -2.00575,1.36282 -0.53958,0.34788 -1.06428,0.72347 -1.53594,1.15986 -0.43916,0.35841 -0.77991,0.82281 -1.09484,1.29 -0.0482,0.0842 -0.0964,0.16828 -0.14464,0.2524 0,0 -4.85511,2.12996 -4.85511,2.12996 l 0,0 c 0.0541,-0.0726 0.10818,-0.14527 0.16227,-0.2179 0.24874,-0.54573 0.64463,-1.00053 1.01624,-1.46738 0.52088,-0.3973 0.96662,-0.88967 1.52928,-1.24003 0.69235,-0.40358 1.34962,-0.86704 2.02093,-1.30413 2.65122,-2.24491 11.06254,-6.22139 1.53393,-1.0389 0.35052,-0.22487 0.17923,-0.1 0.512,-0.37723 2.66068,-1.8049 9.95242,-5.67485 0.93992,-0.53493 -0.10577,0.0603 0.1927,-0.14888 0.28904,-0.22332 0.66931,-0.3705 1.25851,-0.84773 1.80651,-1.38069 0.66702,-0.77672 1.41896,-1.48631 1.96611,-2.36092 0,0 4.85306,-2.12337 4.85306,-2.12337 z"
       inkscape:connector-curvature="0" />
    <path
       inkscape:connector-curvature="0"
       d="m 340.48048,955.31997 c 0.59484,0.88534 1.28802,1.69636 2.00089,2.48741 0.51715,0.60143 1.13044,1.10198 1.77874,1.55363 3.01586,1.85859 9.99653,5.77261 0.94344,0.59709 -0.79272,-0.45319 0.70156,0.44696 0.83061,0.5392 10.19053,5.89722 3.09675,1.78656 0.50442,0.30672 -0.0818,-0.0467 0.15676,0.10463 0.23659,0.15469 0.29162,0.18286 0.57336,0.36384 0.85128,0.56787 0.64792,0.51469 1.35882,0.93979 2.04962,1.39264 0.55138,0.35549 1.08757,0.73929 1.56954,1.18522 0.44876,0.36625 0.79697,0.84081 1.11879,1.31822 0.0493,0.086 0.0985,0.17196 0.14779,0.25792 0,0 4.96132,2.17654 4.96132,2.17654 l 0,0 c -0.0553,-0.0743 -0.11055,-0.14843 -0.16582,-0.22266 -0.25418,-0.55767 -0.65873,-1.02241 -1.03848,-1.49948 -0.53227,-0.40598 -0.98776,-0.90911 -1.56273,-1.26714 -0.70748,-0.41241 -1.37913,-0.88601 -2.06513,-1.33267 -2.70921,-2.29401 -11.30451,-6.35746 -1.56748,-1.06162 -0.35818,-0.22978 -0.18316,-0.10214 -0.5232,-0.38547 -2.71888,-1.84438 -10.1701,-5.79899 -0.96047,-0.54663 0.10808,0.0616 -0.19692,-0.15214 -0.29537,-0.22821 -0.68395,-0.3786 -1.28604,-0.86627 -1.84603,-1.41089 -0.68159,-0.79371 -1.44998,-1.51882 -2.0091,-2.41256 0,0 -4.95922,-2.16982 -4.95922,-2.16982 z"
       id="path3868"
       style="fill:#800000;fill-opacity:1;stroke:#d40000;stroke-width:4.04036331;stroke-linecap:round;stroke-linejoin:round;stroke-miterlimit:4;stroke-opacity:1;stroke-dasharray:none" />
    <path
       sodipodi:nodetypes="csc"
       inkscape:connector-curvature="0"
       id="path3870"
       d="m 346.83975,919.02704 c 2.93107,2.56469 3.81999,2.09435 2.93107,2.07617 -0.81403,-0.0166 0.79511,-4.99103 1.34342,-4.15234"
       style="fill:none;stroke:#008000;stroke-width:1.35408568;stroke-linecap:butt;stroke-linejoin:miter;stroke-miterlimit:4;stroke-opacity:1;stroke-dasharray:none;filter:url(#filter3982)" />
    <path
       inkscape:connector-curvature="0"
       d="m 351.80417,910.69152 c -0.19793,0.28311 -0.42858,0.54244 -0.66579,0.79539 -0.17207,0.19232 -0.37615,0.35238 -0.59186,0.4968 -1.00353,0.59432 -3.32633,1.84589 -0.31394,0.19093 0.26378,-0.14491 -0.23344,0.14293 -0.27638,0.17242 -3.39087,1.88574 -1.03043,0.57128 -0.16784,0.0981 0.0272,-0.0149 -0.0522,0.0335 -0.0787,0.0494 -0.097,0.0585 -0.19079,0.11634 -0.28327,0.18158 -0.2156,0.16459 -0.45214,0.30052 -0.68201,0.44532 -0.18347,0.11368 -0.36188,0.23641 -0.52226,0.379 -0.14932,0.11712 -0.26519,0.26886 -0.37227,0.42153 -0.0164,0.0275 -0.0328,0.055 -0.0492,0.0825 0,0 -1.65087,0.696 -1.65087,0.696 l 0,0 c 0.0184,-0.0237 0.0368,-0.0474 0.0552,-0.0712 0.0846,-0.17833 0.21919,-0.32694 0.34555,-0.47949 0.17711,-0.12982 0.32868,-0.29071 0.51999,-0.40519 0.23542,-0.13187 0.45891,-0.28331 0.68717,-0.42614 0.90149,-0.73355 3.76154,-2.03291 0.52158,-0.33947 0.11918,-0.0735 0.061,-0.0326 0.17409,-0.12327 0.9047,-0.58976 3.38408,-1.85432 0.3196,-0.17479 -0.0359,0.0197 0.0655,-0.0486 0.0983,-0.073 0.22758,-0.12107 0.42792,-0.27701 0.61425,-0.45116 0.22681,-0.2538 0.48249,-0.48566 0.66853,-0.77146 0,0 1.65017,-0.69383 1.65017,-0.69383 z"
       id="path3872"
       style="fill:#800000;fill-opacity:1;stroke:#d40000;stroke-width:1.31793702;stroke-linecap:round;stroke-linejoin:round;stroke-miterlimit:4;stroke-opacity:1;stroke-dasharray:none" />
    <path
       style="fill:#800000;fill-opacity:1;stroke:#d40000;stroke-width:1.34676373;stroke-linecap:round;stroke-linejoin:round;stroke-miterlimit:4;stroke-opacity:1;stroke-dasharray:none"
       id="path3874"
       d="m 346.08798,910.58971 c 0.20226,0.28929 0.43796,0.5543 0.68035,0.81279 0.17585,0.19652 0.38438,0.36008 0.60481,0.50766 1.02548,0.60732 3.39908,1.88627 0.3208,0.19511 -0.26954,-0.14809 0.23855,0.14605 0.28243,0.17619 3.46504,1.92698 1.05297,0.58377 0.17152,0.10022 -0.0278,-0.0152 0.0533,0.0342 0.0804,0.0506 0.0992,0.0597 0.19496,0.1189 0.28946,0.18556 0.22031,0.16818 0.46204,0.30709 0.69692,0.45507 0.18749,0.11615 0.36981,0.24156 0.53369,0.38728 0.15259,0.11967 0.27098,0.27474 0.38041,0.43074 0.0168,0.0281 0.0335,0.0562 0.0503,0.0843 0,0 1.68697,0.71121 1.68697,0.71121 l 0,0 c -0.0188,-0.0242 -0.0376,-0.0485 -0.0564,-0.0727 -0.0864,-0.18222 -0.22399,-0.33408 -0.35311,-0.48997 -0.18098,-0.13266 -0.33586,-0.29706 -0.53136,-0.41406 -0.24057,-0.13476 -0.46895,-0.28951 -0.70221,-0.43546 -0.92119,-0.74959 -3.84382,-2.07737 -0.53298,-0.3469 -0.12179,-0.075 -0.0623,-0.0333 -0.1779,-0.12595 -0.92449,-0.60267 -3.4581,-1.89488 -0.32658,-0.17862 0.0368,0.0202 -0.0669,-0.0497 -0.10043,-0.0745 -0.23257,-0.12371 -0.43729,-0.28307 -0.62771,-0.46102 -0.23175,-0.25936 -0.49302,-0.4963 -0.68314,-0.78834 0,0 -1.68626,-0.70901 -1.68626,-0.70901 z"
       inkscape:connector-curvature="0" />
    <path
       style="fill:#800000;fill-opacity:1;stroke:#d40000;stroke-width:1.15226352;stroke-linecap:round;stroke-linejoin:round;stroke-miterlimit:4;stroke-opacity:1;stroke-dasharray:none;filter:url(#filter3978)"
       id="path3876"
       d="m 351.4001,925.78765 c -0.16964,0.2525 -0.36733,0.48378 -0.57063,0.70938 -0.14748,0.17152 -0.32239,0.31427 -0.50727,0.44308 -0.86009,0.53005 -2.8509,1.64628 -0.26906,0.17028 0.22607,-0.12924 -0.20008,0.12747 -0.23689,0.15377 -2.90621,1.68182 -0.88315,0.50951 -0.14385,0.0875 0.0233,-0.0133 -0.0447,0.0299 -0.0675,0.0441 -0.0832,0.0522 -0.16352,0.10376 -0.24279,0.16195 -0.18477,0.14679 -0.38751,0.26802 -0.58452,0.39716 -0.15725,0.10139 -0.31016,0.21085 -0.44761,0.33802 -0.12799,0.10445 -0.22729,0.23979 -0.31907,0.37594 -0.014,0.0246 -0.0281,0.049 -0.0421,0.0736 0,0 -1.41491,0.62073 -1.41491,0.62073 l 0,0 c 0.0157,-0.0212 0.0315,-0.0423 0.0473,-0.0635 0.0725,-0.15904 0.18786,-0.29158 0.29615,-0.42763 0.1518,-0.11578 0.2817,-0.25928 0.44567,-0.36137 0.20177,-0.11762 0.39332,-0.25268 0.58896,-0.38007 0.77264,-0.65423 3.2239,-1.81307 0.44703,-0.30276 0.10215,-0.0656 0.0523,-0.0291 0.1492,-0.10993 0.77539,-0.52599 2.9004,-1.6538 0.27392,-0.15589 -0.0308,0.0175 0.0561,-0.0434 0.0842,-0.0651 0.19505,-0.10797 0.36676,-0.24705 0.52646,-0.40236 0.19439,-0.22636 0.41352,-0.43315 0.57297,-0.68804 0,0 1.41431,-0.61881 1.41431,-0.61881 z"
       inkscape:connector-curvature="0" />
    <path
       inkscape:connector-curvature="0"
       d="m 346.50086,925.69685 c 0.17335,0.25801 0.37536,0.49436 0.5831,0.7249 0.15072,0.17527 0.32945,0.32114 0.51837,0.45276 0.87891,0.54164 2.91325,1.68229 0.27495,0.17401 -0.23102,-0.13208 0.20445,0.13025 0.24206,0.15714 2.96978,1.7186 0.90247,0.52064 0.147,0.0894 -0.0239,-0.0136 0.0457,0.0305 0.069,0.0451 0.085,0.0533 0.16709,0.10603 0.24808,0.16549 0.18883,0.14999 0.396,0.27388 0.59732,0.40586 0.16069,0.10359 0.31694,0.21544 0.4574,0.3454 0.13078,0.10673 0.23225,0.24503 0.32604,0.38416 0.0144,0.0251 0.0287,0.0501 0.0431,0.0752 0,0 1.44585,0.6343 1.44585,0.6343 l 0,0 c -0.0161,-0.0216 -0.0322,-0.0432 -0.0483,-0.0648 -0.074,-0.16252 -0.19197,-0.29796 -0.30264,-0.43699 -0.15512,-0.11832 -0.28786,-0.26494 -0.45542,-0.36928 -0.20618,-0.12019 -0.40192,-0.25821 -0.60183,-0.38837 -0.78954,-0.66854 -3.29443,-1.85273 -0.45681,-0.30939 -0.10438,-0.0669 -0.0533,-0.0297 -0.15247,-0.11233 -0.79235,-0.5375 -2.96384,-1.68998 -0.27991,-0.1593 0.0315,0.018 -0.0574,-0.0443 -0.0861,-0.0665 -0.19933,-0.11033 -0.37479,-0.25245 -0.53799,-0.41117 -0.19863,-0.23131 -0.42256,-0.44263 -0.5855,-0.70308 0,0 -1.44524,-0.63234 -1.44524,-0.63234 z"
       id="path3878"
       style="fill:#800000;fill-opacity:1;stroke:#d40000;stroke-width:1.17746663;stroke-linecap:round;stroke-linejoin:round;stroke-miterlimit:4;stroke-opacity:1;stroke-dasharray:none;filter:url(#filter3974)" />
    <path
       inkscape:connector-curvature="0"
       d="m 351.01395,931.65717 c -0.14261,0.19802 -0.3088,0.3794 -0.47971,0.55632 -0.12398,0.13451 -0.27102,0.24645 -0.42644,0.34747 -0.72305,0.41568 -2.39664,1.29105 -0.22619,0.13354 0.19005,-0.10136 -0.1682,0.1 -0.19914,0.12059 -2.44314,1.31892 -0.74243,0.39957 -0.12093,0.0686 0.0196,-0.0104 -0.0376,0.0235 -0.0567,0.0346 -0.0699,0.0409 -0.13746,0.0814 -0.2041,0.12701 -0.15533,0.11511 -0.32577,0.21019 -0.49138,0.31146 -0.1322,0.0795 -0.26074,0.16535 -0.37629,0.26508 -0.1076,0.0819 -0.19108,0.18805 -0.26823,0.29482 -0.0118,0.0193 -0.0236,0.0384 -0.0354,0.0577 0,0 -1.18946,0.4868 -1.18946,0.4868 l 0,0 c 0.0132,-0.0166 0.0265,-0.0332 0.0398,-0.0498 0.061,-0.12473 0.15793,-0.22867 0.24896,-0.33536 0.12762,-0.0908 0.23682,-0.20333 0.37466,-0.2834 0.16962,-0.0922 0.33065,-0.19815 0.49512,-0.29806 0.64952,-0.51306 2.7102,-1.42185 0.3758,-0.23743 0.0859,-0.0514 0.044,-0.0228 0.12542,-0.0862 0.65184,-0.41249 2.43825,-1.29695 0.23028,-0.12225 -0.0259,0.0137 0.0472,-0.034 0.0708,-0.0511 0.16397,-0.0847 0.30832,-0.19375 0.44257,-0.31554 0.16342,-0.17752 0.34763,-0.33969 0.48168,-0.53958 0,0 1.18895,-0.48529 1.18895,-0.48529 z"
       id="path3880"
       style="fill:#800000;fill-opacity:1;stroke:#d40000;stroke-width:0.93558282;stroke-linecap:round;stroke-linejoin:round;stroke-miterlimit:4;stroke-opacity:1;stroke-dasharray:none;filter:url(#filter4022)" />
    <path
       style="fill:#800000;fill-opacity:1;stroke:#d40000;stroke-width:0.95604658;stroke-linecap:round;stroke-linejoin:round;stroke-miterlimit:4;stroke-opacity:1;stroke-dasharray:none;filter:url(#filter4018)"
       id="path3882"
       d="m 346.89542,931.58597 c 0.14573,0.20233 0.31555,0.38768 0.49019,0.56848 0.1267,0.13745 0.27696,0.25185 0.43577,0.35507 0.73887,0.42476 2.44906,1.31929 0.23114,0.13646 -0.19421,-0.10358 0.17188,0.10214 0.20349,0.12323 2.49658,1.34777 0.75867,0.4083 0.12358,0.0701 -0.0201,-0.0107 0.0384,0.0239 0.058,0.0354 0.0715,0.0418 0.14047,0.0832 0.20856,0.12978 0.15874,0.11763 0.3329,0.21478 0.50214,0.31829 0.13508,0.0812 0.26644,0.16895 0.38452,0.27087 0.10994,0.0837 0.19524,0.19216 0.27409,0.30126 0.0121,0.0197 0.0241,0.0393 0.0362,0.059 0,0 1.21547,0.49743 1.21547,0.49743 l 0,0 c -0.0135,-0.0169 -0.0271,-0.0339 -0.0406,-0.0508 -0.0622,-0.12745 -0.16138,-0.23366 -0.25441,-0.34269 -0.13041,-0.0928 -0.242,-0.20778 -0.38286,-0.2896 -0.17333,-0.0943 -0.33788,-0.2025 -0.50593,-0.30457 -0.66374,-0.52429 -2.7695,-1.45296 -0.38402,-0.24263 -0.0877,-0.0525 -0.0448,-0.0233 -0.12818,-0.0881 -0.6661,-0.42153 -2.49158,-1.32533 -0.23531,-0.12493 0.0265,0.0141 -0.0482,-0.0347 -0.0724,-0.0521 -0.16757,-0.0865 -0.31507,-0.19798 -0.45227,-0.32245 -0.16698,-0.1814 -0.35523,-0.34712 -0.4922,-0.55137 0,0 -1.21496,-0.4959 -1.21496,-0.4959 z"
       inkscape:connector-curvature="0" />
    <path
       style="fill:#800000;fill-opacity:1;stroke:#d40000;stroke-width:0.63570118;stroke-linecap:round;stroke-linejoin:round;stroke-miterlimit:4;stroke-opacity:1;stroke-dasharray:none;filter:url(#filter4014)"
       id="path3884"
       d="m 350.36109,937.63435 c -0.0969,0.13455 -0.20982,0.25779 -0.32595,0.378 -0.0842,0.0914 -0.18415,0.16746 -0.28975,0.2361 -0.49129,0.28244 -1.62845,0.87723 -0.15369,0.0907 0.12914,-0.0689 -0.11429,0.0679 -0.13531,0.0819 -1.66004,0.89617 -0.50446,0.2715 -0.0822,0.0466 0.0133,-0.007 -0.0255,0.016 -0.0385,0.0235 -0.0475,0.0278 -0.0934,0.0553 -0.13868,0.0863 -0.10554,0.0782 -0.22135,0.14282 -0.33388,0.21163 -0.0898,0.054 -0.17717,0.11235 -0.25568,0.18011 -0.0731,0.0557 -0.12983,0.12778 -0.18225,0.20033 -0.008,0.0131 -0.016,0.0261 -0.0241,0.0392 0,0 -0.8082,0.33077 -0.8082,0.33077 l 0,0 c 0.009,-0.0113 0.018,-0.0226 0.027,-0.0338 0.0414,-0.0847 0.10731,-0.15537 0.16916,-0.22787 0.0867,-0.0617 0.16092,-0.13815 0.25457,-0.19256 0.11526,-0.0627 0.22467,-0.13464 0.33642,-0.20252 0.44133,-0.34861 1.84151,-0.96611 0.25535,-0.16133 0.0584,-0.0349 0.0299,-0.0155 0.0852,-0.0586 0.4429,-0.28027 1.65672,-0.88124 0.15647,-0.0831 -0.0176,0.009 0.0321,-0.0231 0.0481,-0.0347 0.11142,-0.0575 0.2095,-0.13164 0.30072,-0.2144 0.11104,-0.12062 0.2362,-0.23081 0.32728,-0.36662 0,0 0.80786,-0.32975 0.80786,-0.32975 z"
       inkscape:connector-curvature="0" />
    <path
       inkscape:connector-curvature="0"
       d="m 347.56262,937.58597 c 0.099,0.13748 0.21441,0.26342 0.33307,0.38627 0.0861,0.0934 0.18818,0.17112 0.29609,0.24126 0.50204,0.28861 1.66407,0.89641 0.15705,0.0927 -0.13196,-0.0704 0.11679,0.0694 0.13827,0.0837 1.69635,0.91577 0.51549,0.27742 0.084,0.0476 -0.0137,-0.007 0.0261,0.0162 0.0394,0.024 0.0486,0.0284 0.0954,0.0565 0.14171,0.0882 0.10786,0.0799 0.22619,0.14594 0.34119,0.21627 0.0918,0.0552 0.18104,0.1148 0.26127,0.18405 0.0747,0.0569 0.13266,0.13057 0.18623,0.2047 0.008,0.0134 0.0164,0.0267 0.0246,0.0401 0,0 0.82588,0.33799 0.82588,0.33799 l 0,0 c -0.009,-0.0115 -0.0184,-0.023 -0.0276,-0.0345 -0.0423,-0.0866 -0.10965,-0.15877 -0.17286,-0.23285 -0.0886,-0.063 -0.16444,-0.14118 -0.26015,-0.19677 -0.11777,-0.0641 -0.22958,-0.1376 -0.34376,-0.20695 -0.45099,-0.35624 -1.88179,-0.98724 -0.26093,-0.16486 -0.0596,-0.0357 -0.0304,-0.0158 -0.0871,-0.0599 -0.45259,-0.28642 -1.69295,-0.90053 -0.15988,-0.0849 0.018,0.01 -0.0327,-0.0236 -0.0492,-0.0354 -0.11385,-0.0588 -0.21408,-0.13452 -0.3073,-0.21909 -0.11346,-0.12326 -0.24137,-0.23586 -0.33443,-0.37464 0,0 -0.82553,-0.33695 -0.82553,-0.33695 z"
       id="path3886"
       style="fill:#800000;fill-opacity:1;stroke:#d40000;stroke-width:0.64960575;stroke-linecap:round;stroke-linejoin:round;stroke-miterlimit:4;stroke-opacity:1;stroke-dasharray:none;filter:url(#filter4010)" />
    <path
       sodipodi:type="arc"
       style="fill:none;stroke:#d40000;stroke-width:5.5999999;stroke-linecap:round;stroke-linejoin:round;stroke-miterlimit:4;stroke-opacity:1;stroke-dasharray:none;filter:url(#filter4006)"
       id="path3888"
       sodipodi:cx="204.80843"
       sodipodi:cy="154.11839"
       sodipodi:rx="0.75761437"
       sodipodi:ry="0.50507629"
       d="m 205.56604,154.11839 a 0.75761437,0.50507629 0 1 1 -1.1e-4,-0.009"
       transform="matrix(0.20141596,0,0,0.20141596,307.72531,911.28904)"
       sodipodi:start="0"
       sodipodi:end="6.2657753"
       sodipodi:open="true" />
  </g>
</svg>
